# Blender v2.80 (sub 74) OBJ File: ''
# www.blender.org
o Cylinder
v 0.000000 0.280216 -1.852064
v -0.000000 2.280216 -0.300228
v 1.448002 0.280216 -1.154743
v 0.234728 2.280216 -0.187189
v 1.805629 0.280216 0.412123
v 0.292701 2.280216 0.066807
v 0.803580 0.280216 1.668652
v 0.130264 2.280216 0.270496
v -0.803581 0.280216 1.668652
v -0.130264 2.280216 0.270496
v -1.805629 0.280216 0.412123
v -0.292701 2.280216 0.066807
v -1.448002 0.280216 -1.154743
v -0.234728 2.280216 -0.187189
v 0.000000 0.280216 -1.394708
v -0.000000 2.280216 -0.300228
v 1.090426 0.280216 -0.869586
v 0.234728 2.280216 -0.187189
v 1.359739 0.280216 0.310352
v 0.292701 2.280216 0.066807
v 0.605141 0.280216 1.256588
v 0.130264 2.280216 0.270496
v -0.605141 0.280216 1.256588
v -0.130264 2.280216 0.270496
v -1.359739 0.280216 0.310352
v -0.292701 2.280216 0.066807
v -1.090426 0.280216 -0.869586
v -0.234728 2.280216 -0.187189
v 0.653709 1.558639 -0.925792
v 0.229843 3.496482 -0.018436
v 1.238803 1.496807 -0.097322
v 0.379857 3.480629 0.193977
v 0.954078 1.424209 0.875396
v 0.306856 3.462015 0.443376
v 0.013938 1.395514 1.259887
v 0.065811 3.454658 0.541956
v -0.873673 1.432328 0.766621
v -0.161766 3.464097 0.415486
v -1.040365 1.506931 -0.232963
v -0.204505 3.483224 0.159200
v -0.360617 1.563144 -0.986157
v -0.030223 3.497637 -0.033913
v 0.525100 2.983987 -0.617700
v 0.225305 5.392603 -0.201138
v 0.960744 3.015304 0.000077
v 0.353223 5.401799 -0.019741
v 0.748746 3.052073 0.725418
v 0.290974 5.412596 0.193240
v 0.048744 3.066608 1.012127
v 0.085433 5.416863 0.277426
v -0.612145 3.047962 0.644306
v -0.108623 5.411388 0.169423
v -0.736260 3.010177 -0.101069
v -0.145066 5.400293 -0.049440
v -0.230138 2.981705 -0.662714
v 0.003545 5.391933 -0.214355
v 0.397377 4.985602 -0.381251
v 0.151759 6.367101 -0.192524
v 0.699824 5.064955 0.040797
v 0.202089 6.380306 -0.122291
v 0.552644 5.158124 0.536330
v 0.177597 6.395811 -0.039830
v 0.066668 5.194952 0.732201
v 0.096726 6.401939 -0.007235
v -0.392156 5.147706 0.480916
v 0.020374 6.394077 -0.049051
v -0.478322 5.051963 -0.028303
v 0.006035 6.378144 -0.133790
v -0.126947 4.979820 -0.412003
v 0.064507 6.366139 -0.197641
vt 1.000000 0.500000
vt 1.000000 1.000000
vt 0.857143 1.000000
vt 0.857143 0.500000
vt 0.714286 1.000000
vt 0.714286 0.500000
vt 0.571429 1.000000
vt 0.571429 0.500000
vt 0.428571 1.000000
vt 0.428571 0.500000
vt 0.285714 1.000000
vt 0.285714 0.500000
vt 0.437640 0.399638
vt 0.250000 0.490000
vt 0.062360 0.399638
vt 0.016017 0.196595
vt 0.145868 0.033767
vt 0.354132 0.033767
vt 0.483983 0.196595
vt 0.142857 1.000000
vt 0.142857 0.500000
vt 0.000000 1.000000
vt 0.000000 0.500000
vt 0.750000 0.490000
vt 0.937640 0.399638
vt 0.983983 0.196595
vt 0.854132 0.033767
vt 0.645868 0.033767
vt 0.516017 0.196595
vt 0.562360 0.399638
vt 1.000000 0.500000
vt 1.000000 1.000000
vt 0.857143 1.000000
vt 0.857143 0.500000
vt 0.714286 1.000000
vt 0.714286 0.500000
vt 0.571429 1.000000
vt 0.571429 0.500000
vt 0.428571 1.000000
vt 0.428571 0.500000
vt 0.285714 1.000000
vt 0.285714 0.500000
vt 0.437640 0.399638
vt 0.250000 0.490000
vt 0.062360 0.399638
vt 0.016017 0.196595
vt 0.145868 0.033767
vt 0.354132 0.033767
vt 0.483983 0.196595
vt 0.142857 1.000000
vt 0.142857 0.500000
vt 0.000000 1.000000
vt 0.000000 0.500000
vt 0.750000 0.490000
vt 0.937640 0.399638
vt 0.983983 0.196595
vt 0.854132 0.033767
vt 0.645868 0.033767
vt 0.516017 0.196595
vt 0.562360 0.399638
vt 1.000000 0.500000
vt 1.000000 1.000000
vt 0.857143 1.000000
vt 0.857143 0.500000
vt 0.714286 1.000000
vt 0.714286 0.500000
vt 0.571429 1.000000
vt 0.571429 0.500000
vt 0.428571 1.000000
vt 0.428571 0.500000
vt 0.285714 1.000000
vt 0.285714 0.500000
vt 0.437640 0.399638
vt 0.250000 0.490000
vt 0.062360 0.399638
vt 0.016017 0.196595
vt 0.145868 0.033767
vt 0.354132 0.033767
vt 0.483983 0.196595
vt 0.142857 1.000000
vt 0.142857 0.500000
vt 0.000000 1.000000
vt 0.000000 0.500000
vt 0.750000 0.490000
vt 0.937640 0.399638
vt 0.983983 0.196595
vt 0.854132 0.033767
vt 0.645868 0.033767
vt 0.516017 0.196595
vt 0.562360 0.399638
vt 1.000000 0.500000
vt 1.000000 1.000000
vt 0.857143 1.000000
vt 0.857143 0.500000
vt 0.714286 1.000000
vt 0.714286 0.500000
vt 0.571429 1.000000
vt 0.571429 0.500000
vt 0.428571 1.000000
vt 0.428571 0.500000
vt 0.285714 1.000000
vt 0.285714 0.500000
vt 0.437640 0.399638
vt 0.250000 0.490000
vt 0.062360 0.399638
vt 0.016017 0.196595
vt 0.145868 0.033767
vt 0.354132 0.033767
vt 0.483983 0.196595
vt 0.142857 1.000000
vt 0.142857 0.500000
vt 0.000000 1.000000
vt 0.000000 0.500000
vt 0.750000 0.490000
vt 0.937640 0.399638
vt 0.983983 0.196595
vt 0.854132 0.033767
vt 0.645868 0.033767
vt 0.516017 0.196595
vt 0.562360 0.399638
vt 1.000000 0.500000
vt 1.000000 1.000000
vt 0.857143 1.000000
vt 0.857143 0.500000
vt 0.714286 1.000000
vt 0.714286 0.500000
vt 0.571429 1.000000
vt 0.571429 0.500000
vt 0.428571 1.000000
vt 0.428571 0.500000
vt 0.285714 1.000000
vt 0.285714 0.500000
vt 0.437640 0.399638
vt 0.250000 0.490000
vt 0.062360 0.399638
vt 0.016017 0.196595
vt 0.145868 0.033767
vt 0.354132 0.033767
vt 0.483983 0.196595
vt 0.142857 1.000000
vt 0.142857 0.500000
vt 0.000000 1.000000
vt 0.000000 0.500000
vt 0.750000 0.490000
vt 0.937640 0.399638
vt 0.983983 0.196595
vt 0.854132 0.033767
vt 0.645868 0.033767
vt 0.516017 0.196595
vt 0.562360 0.399638
vn 0.3556 0.5730 -0.7384
vn 0.7990 0.5730 -0.1824
vn 0.6408 0.5730 0.5110
vn 0.0000 0.5730 0.8196
vn -0.6408 0.5730 0.5110
vn 0.0000 1.0000 0.0000
vn -0.7990 0.5730 -0.1824
vn -0.3556 0.5730 -0.7384
vn 0.0000 -1.0000 -0.0000
vn 0.3892 0.4422 -0.8081
vn 0.8744 0.4422 -0.1996
vn 0.7012 0.4422 0.5592
vn 0.0000 0.4422 0.8969
vn -0.7012 0.4422 0.5592
vn -0.8744 0.4422 -0.1996
vn -0.3892 0.4422 -0.8081
vn 0.7611 0.4041 -0.5074
vn 0.8936 0.3447 0.2873
vn 0.3532 0.3000 0.8861
vn -0.4532 0.3036 0.8381
vn -0.9183 0.3528 0.1795
vn 0.0000 0.9972 0.0744
vn -0.6920 0.4105 -0.5939
vn 0.0555 0.4333 -0.8995
vn 0.0000 -0.9972 -0.0744
vn 0.7963 0.1980 -0.5716
vn 0.9350 0.2402 0.2611
vn 0.3696 0.2720 0.8885
vn -0.4741 0.2694 0.8382
vn -0.9608 0.2344 0.1481
vn -0.0000 0.9987 -0.0506
vn -0.7240 0.1934 -0.6622
vn 0.0580 0.1771 -0.9825
vn 0.0000 -0.9987 0.0506
vn 0.7732 0.2188 -0.5952
vn 0.9078 0.3684 0.2004
vn 0.3588 0.4811 0.7999
vn -0.4604 0.4721 0.7518
vn -0.9329 0.3481 0.0924
vn -0.0000 0.9828 -0.1848
vn -0.7029 0.2025 -0.6818
vn 0.0563 0.1450 -0.9878
vn -0.0000 -0.9828 0.1848
s off
f 1/1/1 2/2/1 4/3/1 3/4/1
f 3/4/2 4/3/2 6/5/2 5/6/2
f 5/6/3 6/5/3 8/7/3 7/8/3
f 7/8/4 8/7/4 10/9/4 9/10/4
f 9/10/5 10/9/5 12/11/5 11/12/5
f 4/13/6 2/14/6 14/15/6 12/16/6 10/17/6 8/18/6 6/19/6
f 11/12/7 12/11/7 14/20/7 13/21/7
f 13/21/8 14/20/8 2/22/8 1/23/8
f 1/24/9 3/25/9 5/26/9 7/27/9 9/28/9 11/29/9 13/30/9
f 15/31/10 16/32/10 18/33/10 17/34/10
f 17/34/11 18/33/11 20/35/11 19/36/11
f 19/36/12 20/35/12 22/37/12 21/38/12
f 21/38/13 22/37/13 24/39/13 23/40/13
f 23/40/14 24/39/14 26/41/14 25/42/14
f 18/43/6 16/44/6 28/45/6 26/46/6 24/47/6 22/48/6 20/49/6
f 25/42/15 26/41/15 28/50/15 27/51/15
f 27/51/16 28/50/16 16/52/16 15/53/16
f 15/54/9 17/55/9 19/56/9 21/57/9 23/58/9 25/59/9 27/60/9
f 29/61/17 30/62/17 32/63/17 31/64/17
f 31/64/18 32/63/18 34/65/18 33/66/18
f 33/66/19 34/65/19 36/67/19 35/68/19
f 35/68/20 36/67/20 38/69/20 37/70/20
f 37/70/21 38/69/21 40/71/21 39/72/21
f 32/73/22 30/74/22 42/75/22 40/76/22 38/77/22 36/78/22 34/79/22
f 39/72/23 40/71/23 42/80/23 41/81/23
f 41/81/24 42/80/24 30/82/24 29/83/24
f 29/84/25 31/85/25 33/86/25 35/87/25 37/88/25 39/89/25 41/90/25
f 43/91/26 44/92/26 46/93/26 45/94/26
f 45/94/27 46/93/27 48/95/27 47/96/27
f 47/96/28 48/95/28 50/97/28 49/98/28
f 49/98/29 50/97/29 52/99/29 51/100/29
f 51/100/30 52/99/30 54/101/30 53/102/30
f 46/103/31 44/104/31 56/105/31 54/106/31 52/107/31 50/108/31 48/109/31
f 53/102/32 54/101/32 56/110/32 55/111/32
f 55/111/33 56/110/33 44/112/33 43/113/33
f 43/114/34 45/115/34 47/116/34 49/117/34 51/118/34 53/119/34 55/120/34
f 57/121/35 58/122/35 60/123/35 59/124/35
f 59/124/36 60/123/36 62/125/36 61/126/36
f 61/126/37 62/125/37 64/127/37 63/128/37
f 63/128/38 64/127/38 66/129/38 65/130/38
f 65/130/39 66/129/39 68/131/39 67/132/39
f 60/133/40 58/134/40 70/135/40 68/136/40 66/137/40 64/138/40 62/139/40
f 67/132/41 68/131/41 70/140/41 69/141/41
f 69/141/42 70/140/42 58/142/42 57/143/42
f 57/144/43 59/145/43 61/146/43 63/147/43 65/148/43 67/149/43 69/150/43
