# Blender v2.80 (sub 74) OBJ File: ''
# www.blender.org
o rock_Icosphere.005
v 4.052539 0.264683 -0.274353
v 0.072600 -2.345745 0.259693
v 2.072438 -0.091757 -3.009478
v 2.072438 -0.091757 -3.009478
v 0.072600 -2.345745 0.259693
v -1.813392 0.103267 -1.901538
v 4.052539 0.264683 -0.274353
v 1.936556 3.991916 -0.347836
v 1.180397 2.239410 2.800794
v 2.646133 0.153284 2.146947
v 1.180397 2.239410 2.800794
v -1.262465 -0.327480 2.126271
v 2.072438 -0.091757 -3.009478
v -1.813392 0.103267 -1.901538
v 0.006558 2.381415 -3.038252
v 2.072438 -0.091757 -3.009478
v 0.006558 2.381415 -3.038252
v 1.936556 3.991916 -0.347836
v 1.180397 2.239410 2.800794
v 1.936556 3.991916 -0.347836
v -1.861686 3.095581 0.393937
v -1.262465 -0.327480 2.126271
v 1.180397 2.239410 2.800794
v -1.861686 3.095581 0.393937
v -1.813392 0.103267 -1.901538
v -1.262465 -0.327480 2.126271
v -1.861686 3.095581 0.393937
v 0.006558 2.381415 -3.038252
v -1.813392 0.103267 -1.901538
v -1.861686 3.095581 0.393937
v 1.936556 3.991916 -0.347836
v 0.006558 2.381415 -3.038252
v -1.861686 3.095581 0.393937
v 0.072600 -2.345745 0.259693
v -1.262465 -0.327480 2.126271
v -1.813392 0.103267 -1.901538
v 0.072600 -2.345745 0.259693
v 2.646133 0.153284 2.146947
v -1.262465 -0.327480 2.126271
v 2.646133 0.153284 2.146947
v 4.052539 0.264683 -0.274353
v 1.180397 2.239410 2.800794
v 4.052539 0.264683 -0.274353
v 2.072438 -0.091757 -3.009478
v 1.936556 3.991916 -0.347836
v 4.052539 0.264683 -0.274353
v 2.646133 0.153284 2.146947
v 0.072600 -2.345745 0.259693
vt 0.272727 0.000000
vt 0.190565 0.168881
vt 0.427623 0.139429
vt 0.427623 0.139429
vt 0.190565 0.168881
vt 0.318592 0.288606
vt 0.762999 0.093477
vt 0.658666 0.274305
vt 0.840484 0.274305
vt 0.863020 0.157461
vt 0.840484 0.274305
vt 0.985060 0.289045
vt 0.427623 0.139429
vt 0.318592 0.288606
vt 0.476848 0.274305
vt 0.448444 0.139429
vt 0.476848 0.274305
vt 0.658666 0.274305
vt 0.840484 0.274305
vt 0.658666 0.274305
vt 0.727272 0.393651
vt 0.985060 0.289045
vt 0.840484 0.274305
vt 0.910466 0.419556
vt 0.318592 0.288606
vt 0.106898 0.289045
vt 0.181818 0.393651
vt 0.476848 0.274305
vt 0.318592 0.288606
vt 0.351338 0.412450
vt 0.658666 0.274305
vt 0.476848 0.274305
vt 0.544360 0.420043
vt 0.190565 0.168881
vt 0.106898 0.289045
vt 0.318592 0.288606
vt 0.150722 0.155078
vt 0.000000 0.157461
vt 0.106898 0.289045
vt 0.762999 0.093477
vt 0.448444 0.139429
vt 0.658666 0.274305
vt 0.067874 0.039899
vt 0.000000 0.157461
vt 0.150722 0.155078
vt 0.863020 0.157461
vt 0.762999 0.093477
vt 0.840484 0.274305
vn 0.5053 -0.8233 -0.2585
vn -0.2197 -0.7352 -0.6413
vn 0.7782 0.4504 0.4376
vn 0.0294 -0.2801 0.9595
vn -0.2772 -0.2424 -0.9297
vn 0.5647 0.4637 -0.6827
vn -0.1175 0.8794 0.4613
vn -0.5369 0.3042 0.7869
vn -0.9862 -0.1103 0.1231
vn -0.7803 0.3727 -0.5023
vn -0.2782 0.8989 -0.3385
vn -0.8117 -0.5820 0.0488
vn 0.0759 -0.6495 0.7566
vn 0.7183 0.3965 -0.5717
vn 0.5522 -0.7836 0.2847
vn 0.7836 0.4021 0.4736
s off
f 1/1/1 2/2/1 3/3/1
f 4/4/2 5/5/2 6/6/2
f 7/7/3 8/8/3 9/9/3
f 10/10/4 11/11/4 12/12/4
f 13/13/5 14/14/5 15/15/5
f 16/16/6 17/17/6 18/18/6
f 19/19/7 20/20/7 21/21/7
f 22/22/8 23/23/8 24/24/8
f 25/25/9 26/26/9 27/27/9
f 28/28/10 29/29/10 30/30/10
f 31/31/11 32/32/11 33/33/11
f 34/34/12 35/35/12 36/36/12
f 37/37/13 38/38/13 39/39/13
f 43/40/14 44/41/14 45/42/14
f 46/43/15 47/44/15 48/45/15
s 1
f 40/46/16 41/47/16 42/48/16
